<svg width="102" height="100" viewBox="0 0 102 100" fill="none" xmlns="http://www.w3.org/2000/svg">
<g clip-path="url(#clip0_14018_51176)">
<path d="M94.6091 52.471C94.5772 52.4483 94.5409 52.4437 94.5045 52.4301C95.0091 50.9573 95.15 49.2936 94.8863 47.6299C94.6272 46.0025 94.0181 44.557 93.1317 43.3888C95.4455 42.1842 97.1728 39.8159 97.791 36.9521C98.8456 32.0928 97.1773 27.079 93.3317 23.5333C89.5906 20.0877 84.5177 18.6468 79.8175 19.615C80.6902 16.4694 79.7493 12.7829 77.3583 10.1055C75.1855 7.66899 71.9126 6.04164 68.1442 5.51889C65.8623 5.20069 62.5303 5.18251 59.5847 6.87804C56.8846 8.43266 55.1936 11.1919 55.2027 13.9693C55.2027 13.9784 55.1982 13.9875 55.1982 13.9965V45.7252V82.0769C55.1709 82.1678 55.1709 82.2587 55.1982 82.3451V90.0954C55.0618 92.4092 56.7801 95.8911 58.7574 97.2821C61.0166 98.8731 64.0077 99.6913 67.2806 99.6913C69.1034 99.6913 71.008 99.4368 72.9263 98.9185C76.9446 97.8321 80.9084 94.5047 83.7904 89.7863C85.5086 86.9771 86.245 83.8906 85.8587 81.0996C85.8314 80.9086 85.7996 80.7223 85.7632 80.5359C86.4041 80.7086 87.0542 80.7859 87.6951 80.7859C90.9634 80.7859 94.0408 78.854 95.0727 78.1403C99.1956 75.2675 101.6 70.4127 101.5 65.1579C101.4 59.9168 98.8229 55.1757 94.6091 52.471Z" fill="#D1E2FF"/>
<path d="M46.7966 84.7439V76.9935C46.8239 76.9071 46.8239 76.8162 46.7966 76.7253V40.3737V8.64498C46.7966 8.64498 46.7921 8.6268 46.7921 8.61771C46.8012 5.84031 45.1102 3.08109 42.4101 1.52648C39.469 -0.169052 36.1325 -0.150869 33.8506 0.167327C30.0822 0.690077 26.8094 2.32197 24.6365 4.7539C22.2455 7.43584 21.3091 11.1178 22.1773 14.2634C17.4771 13.2952 12.4087 14.7362 8.6631 18.1818C4.81292 21.7274 3.14467 26.7412 4.20381 31.6006C4.82656 34.4643 6.55391 36.8326 8.86311 38.0372C7.98125 39.2009 7.36759 40.651 7.10848 42.2783C6.84484 43.942 6.98575 45.6057 7.49032 47.0785C7.45395 47.0922 7.41759 47.0967 7.38577 47.1194C3.17649 49.8196 0.603645 54.5607 0.499095 59.8018C0.39909 65.0566 2.80374 69.9114 6.92666 72.7842C7.95398 73.5024 11.0314 75.4298 14.3043 75.4298C14.9452 75.4298 15.5952 75.3525 16.2362 75.1798C16.1998 75.3662 16.168 75.5571 16.1407 75.7435C15.7543 78.5345 16.4907 81.621 18.209 84.4302C21.0909 89.1486 25.0547 92.476 29.0731 93.5624C30.9868 94.0806 32.896 94.3352 34.7188 94.3352C37.9917 94.3352 40.9827 93.5124 43.2419 91.926C45.2147 90.535 46.9375 87.0531 46.8012 84.7393L46.7966 84.7439Z" fill="#F3F6FA"/>
<path d="M49.5514 79.9466C49.5787 79.8603 49.5787 79.7694 49.5514 79.6784V43.3268V11.5981C49.5514 11.5981 49.5469 11.5799 49.5469 11.5708C49.556 8.79343 47.865 6.03422 45.1649 4.4796C42.2238 2.78407 38.8873 2.80226 36.6054 3.12045C32.837 3.6432 29.5642 5.27055 27.3913 7.70702C25.0003 10.389 24.0639 14.0709 24.9321 17.2165C20.2319 16.2483 15.1635 17.6893 11.4179 21.1349C7.56772 24.6805 5.89946 29.6944 6.9586 34.5537C7.58135 37.4174 9.3087 39.7857 11.6179 40.9903C10.736 42.154 10.1224 43.6041 9.86327 45.2314C9.59963 46.8951 9.74054 48.5589 10.2451 50.0317C10.2087 50.0453 10.1724 50.0498 10.1406 50.0726C5.92673 52.7772 3.34934 57.5184 3.24934 62.7595C3.14933 68.0143 5.55399 72.869 9.6769 75.7419C10.7042 76.4601 13.7816 78.3875 17.0545 78.3875C17.6954 78.3875 18.3455 78.3102 18.9864 78.1375C18.95 78.3238 18.9182 78.5148 18.891 78.7011C18.5046 81.4922 19.241 84.5787 20.9592 87.3879C23.8412 92.1063 27.805 95.4337 31.8234 96.5201C33.7371 97.0383 35.6463 97.2929 37.4691 97.2929C40.7419 97.2929 43.733 96.4701 45.9922 94.8837C47.965 93.4927 49.6878 90.0107 49.5514 87.697V79.9466ZM45.4285 94.0882C42.1511 96.3974 37.16 96.9565 32.0779 95.5837C28.2959 94.5609 24.5458 91.3881 21.7911 86.8833C20.191 84.265 19.5046 81.4058 19.8592 78.8375C20.2546 75.9555 22.0638 73.4282 24.4594 72.3963C24.5548 72.3554 24.623 72.2827 24.673 72.2008C25.2867 72.7145 25.9685 73.1463 26.7049 73.46C27.7232 73.8918 28.8369 74.1055 29.9505 74.1055C31.6324 74.1055 33.3234 73.6191 34.7098 72.6781C34.9326 72.5281 34.9917 72.2236 34.8371 72.0008C34.6871 71.7781 34.3826 71.719 34.1598 71.8735C32.1234 73.2554 29.3505 73.5282 27.0868 72.5645C24.823 71.6008 23.0957 69.4143 22.6775 66.987C22.2638 64.5641 23.1684 61.9231 24.9821 60.2639C25.1821 60.0821 25.1958 59.773 25.014 59.5775C24.8321 59.3775 24.523 59.3639 24.3276 59.5457C22.2729 61.4231 21.2501 64.4096 21.7184 67.1506C22.0002 68.7916 22.8184 70.3371 23.973 71.5463C21.8002 72.519 20.0728 74.5691 19.2773 77.0283C19.2682 77.0283 19.2591 77.0283 19.2546 77.0283C15.6181 78.3784 11.4315 75.7692 10.236 74.9328C6.37675 72.2463 4.1312 67.6961 4.22666 62.7686C4.31757 57.8775 6.70404 53.4545 10.6133 50.9226C10.6224 50.9408 10.6269 50.959 10.636 50.9771C11.5497 52.8545 13.1361 54.2682 14.9862 54.8591C15.609 55.0592 16.259 55.1546 16.9045 55.1546C18.3091 55.1546 19.6955 54.6955 20.7319 53.8364C20.941 53.6636 20.9683 53.3591 20.7956 53.15C20.6228 52.9409 20.3183 52.9136 20.1092 53.0863C18.8455 54.1318 16.95 54.4637 15.2817 53.9318C13.7089 53.4273 12.2952 52.1636 11.5088 50.5499C10.777 49.0498 10.536 47.2133 10.827 45.3724C11.1588 43.2859 12.1588 41.4585 13.5725 40.3494C15.1453 39.1175 17.2909 38.8039 18.9137 39.5675C19.1591 39.6812 19.4455 39.5766 19.5637 39.3357C19.6773 39.0948 19.5728 38.8039 19.3319 38.6902C17.3818 37.772 14.8271 38.1357 12.9725 39.5857C12.727 39.7766 12.4952 39.9903 12.277 40.2176C10.1178 39.1857 8.49048 37.0038 7.91319 34.3355C6.93132 29.8171 8.49048 25.1487 12.0816 21.8395C15.7499 18.4621 20.7683 17.1347 25.3185 18.2939C23.9912 20.053 23.7957 22.5895 24.9276 24.5123C25.0185 24.6669 25.1821 24.7532 25.3458 24.7532C25.4276 24.7532 25.514 24.7305 25.5913 24.6851C25.8231 24.5487 25.9004 24.2487 25.764 24.0168C24.7321 22.2622 25.073 19.7803 26.5413 18.3666C28.0095 16.9574 30.5051 16.7165 32.2188 17.8166C32.4461 17.962 32.7461 17.8984 32.8916 17.6711C33.037 17.4438 32.9734 17.1438 32.7461 16.9983C30.7142 15.6892 27.8959 15.9074 26.0731 17.4847C26.0458 17.4756 26.0231 17.4711 25.9958 17.462C25.9958 17.4075 25.9958 17.3575 25.9776 17.3029C25.0094 14.3982 25.8504 10.8799 28.1186 8.33887C30.1369 6.07513 33.2007 4.56143 36.7372 4.06595C38.8646 3.77048 41.9738 3.74321 44.6739 5.30237C47.1195 6.71152 48.6832 9.32528 48.5696 11.8072C48.5696 11.8208 48.5741 11.8345 48.5741 11.8481V25.4942C46.2058 26.0624 43.8239 25.9169 41.8511 25.0714C39.6283 24.1214 37.9554 22.2804 37.3736 20.153C36.7645 17.9166 37.5009 15.3892 39.1646 14.0119C39.3737 13.8391 39.401 13.5346 39.2282 13.3255C39.0555 13.1164 38.7509 13.0891 38.5418 13.2618C36.5599 14.8983 35.7099 17.7711 36.4281 20.4076C37.0872 22.8168 38.9691 24.8942 41.4647 25.9624C42.7738 26.5215 44.2421 26.8079 45.7649 26.8079C46.6877 26.8079 47.6286 26.6988 48.5696 26.4897V43.2086C47.5013 45.7451 44.4648 47.6088 41.7511 47.3815C39.0328 47.1497 36.5463 44.9723 35.9599 42.3086C36.9872 41.3449 37.7873 40.1312 38.2282 38.7766C39.2328 35.7083 38.3282 32.1536 35.9781 29.9353C35.7826 29.7489 35.4735 29.758 35.2917 29.9535C35.1053 30.1489 35.1144 30.458 35.3099 30.6399C37.3554 32.5763 38.1782 35.7946 37.3009 38.472C36.4281 41.1494 33.8644 43.2677 31.0733 43.6177C28.2777 43.9723 25.2731 42.5586 23.7594 40.1858C23.6139 39.9585 23.3139 39.8903 23.0866 40.0357C22.8593 40.1812 22.7911 40.4812 22.9366 40.7085C24.4867 43.145 27.3095 44.6496 30.1778 44.6496C30.5142 44.6496 30.8551 44.6269 31.1915 44.586C32.6234 44.4041 33.978 43.8359 35.1326 42.9904C35.9826 45.8724 38.6509 48.0952 41.6647 48.3498C41.8374 48.3634 42.0147 48.3725 42.1875 48.3725C44.5648 48.3725 47.074 47.0452 48.565 45.1087V78.442C46.3195 76.251 42.7193 75.4328 39.7919 76.6056C36.4281 77.9556 34.2326 81.8149 34.7962 85.3969C34.8326 85.6378 35.0417 85.806 35.2781 85.806C35.3053 85.806 35.3281 85.806 35.3553 85.8014C35.619 85.7605 35.8008 85.5105 35.7599 85.2469C35.2644 82.0967 37.1963 78.6966 40.1555 77.5102C43.0602 76.3465 46.7104 77.4102 48.565 79.9239V87.6743C48.565 87.6743 48.565 87.6833 48.565 87.6924C48.565 87.697 48.565 87.7015 48.565 87.7106C48.6832 89.4925 47.2559 92.7745 45.4194 94.07L45.4285 94.0882Z" fill="#7C8C9C"/>
<path d="M38.2475 64.5866C40.7067 64.5866 43.1568 63.1775 44.3478 61.0228C45.6342 58.6909 45.4024 55.5862 43.7841 53.4725C43.6205 53.2588 43.3159 53.2179 43.1023 53.3816C42.8886 53.5452 42.8477 53.8498 43.0113 54.0634C44.4023 55.8771 44.6023 58.5454 43.4977 60.5501C42.3931 62.5547 40.0294 63.8048 37.7475 63.5911C35.4701 63.3775 33.3791 61.7138 32.6609 59.5364C32.5745 59.2818 32.3018 59.1409 32.0472 59.2273C31.7927 59.3137 31.6517 59.5864 31.7381 59.841C32.57 62.3683 35.0064 64.3093 37.6565 64.5594C37.852 64.5775 38.052 64.5866 38.2475 64.5866Z" fill="#7C8C9C"/>
<path d="M92.2028 50.0648C92.171 50.042 92.1346 50.0375 92.0982 50.0238C92.6028 48.5511 92.7437 46.8873 92.4801 45.2236C92.221 43.5963 91.6119 42.1508 90.7255 40.9825C93.0392 39.7779 94.7666 37.4096 95.3848 34.5459C96.4394 29.6866 94.7711 24.6727 90.9255 21.1271C87.1844 17.6815 82.1114 16.2405 77.4112 17.2087C78.284 14.0631 77.343 10.3766 74.952 7.69921C72.7792 5.26274 69.5063 3.63539 65.738 3.11264C63.4561 2.79444 60.1241 2.77626 57.1785 4.47179C54.4784 6.02641 52.7874 8.78562 52.7965 11.563C52.7965 11.5721 52.7919 11.5812 52.7919 11.5903V43.319V79.6706C52.7647 79.7615 52.7647 79.8525 52.7919 79.9388V87.6892C52.6556 90.0029 54.3738 93.4849 56.3512 94.8759C58.6104 96.4668 61.6014 97.2851 64.8743 97.2851C66.6971 97.2851 68.6017 97.0305 70.52 96.5123C74.5384 95.4259 78.5022 92.0985 81.3841 87.3801C83.1024 84.5708 83.8388 81.4843 83.4524 78.6933C83.4251 78.5024 83.3933 78.316 83.3569 78.1297C83.9979 78.3024 84.6479 78.3797 85.2889 78.3797C88.5572 78.3797 91.6346 76.4478 92.6665 75.7341C96.7894 72.8612 99.194 68.0065 99.094 62.7517C98.994 57.5105 96.4166 52.7694 92.2028 50.0648ZM92.1073 74.9386C90.9118 75.7705 86.7298 78.3842 83.0888 77.0341C83.0797 77.0341 83.0706 77.0341 83.066 77.0341C82.2705 74.5795 80.5477 72.5249 78.3704 71.5521C79.5295 70.3429 80.3477 68.7974 80.625 67.1564C81.0932 64.4154 80.0704 61.4289 78.0203 59.5515C77.8203 59.3697 77.5158 59.3834 77.334 59.5834C77.1521 59.7834 77.1658 60.0879 77.3658 60.2698C79.1795 61.9289 80.0841 64.57 79.6704 66.9928C79.2568 69.4156 77.5249 71.6066 75.2611 72.5703C72.9974 73.534 70.22 73.2613 68.1881 71.8794C67.9653 71.7294 67.6608 71.7839 67.5108 72.0066C67.3608 72.2294 67.4153 72.5294 67.6381 72.6839C69.0245 73.6249 70.7109 74.1113 72.3974 74.1113C73.511 74.1113 74.6247 73.8976 75.643 73.4658C76.3794 73.1521 77.0612 72.7249 77.6749 72.2067C77.7249 72.2885 77.7931 72.3612 77.8885 72.4021C80.2841 73.4294 82.0933 75.9614 82.4887 78.8433C82.8433 81.4162 82.1569 84.2708 80.5568 86.8891C77.8022 91.3984 74.052 94.5667 70.27 95.5895C65.188 96.9623 60.1968 96.4032 56.9194 94.094C55.083 92.7985 53.6511 89.5165 53.7738 87.7346C53.7738 87.7301 53.7738 87.7255 53.7738 87.7164C53.7738 87.7119 53.7738 87.7074 53.7738 87.6983V79.9479C55.6284 77.4342 59.2786 76.3705 62.1833 77.5342C65.147 78.7206 67.0744 82.1207 66.5789 85.2709C66.538 85.5345 66.7198 85.7845 66.9835 85.8254C67.0108 85.8254 67.0335 85.83 67.0608 85.83C67.2971 85.83 67.5017 85.6573 67.5426 85.4209C68.1063 81.8389 65.9107 77.9796 62.5469 76.6296C59.6195 75.4568 56.0239 76.2705 53.7738 78.466V45.1327C55.2648 47.0692 57.7694 48.3965 60.1514 48.3965C60.3286 48.3965 60.5014 48.3874 60.6741 48.3738C63.6879 48.1192 66.3562 45.9009 67.2062 43.0144C68.3563 43.8599 69.7109 44.4281 71.1473 44.61C71.4837 44.6509 71.8246 44.6736 72.161 44.6736C75.0338 44.6736 77.8522 43.169 79.4022 40.7325C79.5477 40.5052 79.4795 40.2052 79.2522 40.0598C79.0249 39.9143 78.7249 39.9825 78.5795 40.2098C77.0658 42.5826 74.0565 43.9963 71.2655 43.6417C68.4699 43.2872 65.9107 41.1734 65.0379 38.4961C64.1652 35.8187 64.9834 32.6003 67.0289 30.6639C67.2244 30.4775 67.2335 30.1729 67.0471 29.9775C66.8608 29.782 66.5562 29.7729 66.3607 29.9593C64.0152 32.1776 63.1106 35.7323 64.1106 38.8006C64.5516 40.1552 65.3516 41.3644 66.3789 42.3326C65.7925 44.9963 63.306 47.1783 60.5877 47.4055C57.874 47.6374 54.8375 45.7691 53.7693 43.2326V26.5137C54.7102 26.7228 55.6512 26.8319 56.5739 26.8319C58.0967 26.8319 59.565 26.5501 60.8741 25.9864C63.3697 24.9182 65.2516 22.8408 65.9107 20.4316C66.6289 17.7951 65.7834 14.9223 63.797 13.2858C63.5879 13.1131 63.2833 13.1449 63.1106 13.3495C62.9379 13.5586 62.9697 13.8631 63.1742 14.0359C64.8425 15.4132 65.5789 17.936 64.9652 20.177C64.3834 22.3044 62.7106 24.1409 60.4877 25.0954C58.5149 25.9409 56.133 26.0864 53.7647 25.5182V11.8721C53.7647 11.8721 53.7738 11.8449 53.7693 11.8312C53.6511 9.35383 55.2193 6.74008 57.6649 5.32638C60.3696 3.76721 63.4742 3.78994 65.6016 4.08996C69.1427 4.58089 72.2019 6.09914 74.2202 8.36287C76.4885 10.9039 77.3294 14.4222 76.3612 17.3269C76.343 17.3815 76.343 17.4315 76.343 17.486C76.3157 17.4951 76.293 17.4997 76.2657 17.5087C74.4429 15.9359 71.6246 15.7132 69.5927 17.0224C69.3654 17.1678 69.3018 17.4678 69.4472 17.6951C69.5927 17.9224 69.8927 17.986 70.12 17.8406C71.8337 16.736 74.3247 16.9769 75.7975 18.3906C77.2658 19.7998 77.6112 22.2817 76.5748 24.0409C76.4385 24.2727 76.5157 24.5727 76.7476 24.7091C76.8248 24.7545 76.9112 24.7772 76.993 24.7772C77.1612 24.7772 77.3203 24.6909 77.4112 24.5363C78.5431 22.6135 78.3431 20.077 77.0203 18.3179C81.5705 17.1633 86.5889 18.4861 90.2573 21.8635C93.8483 25.1682 95.4075 29.8411 94.4256 34.3595C93.8483 37.0278 92.221 39.2052 90.0618 40.2416C89.8391 40.0188 89.6118 39.8007 89.3663 39.6097C87.5117 38.1551 84.957 37.796 83.0069 38.7142C82.766 38.8279 82.6615 39.1188 82.7751 39.3597C82.8887 39.6052 83.1797 39.7097 83.4206 39.5916C85.0434 38.8279 87.1935 39.1415 88.7663 40.3734C90.18 41.478 91.18 43.3099 91.5119 45.3964C91.8028 47.2328 91.5619 49.0738 90.83 50.5739C90.0436 52.1876 88.6299 53.4513 87.0571 53.9558C85.3889 54.4922 83.4933 54.1604 82.2296 53.1103C82.0251 52.9376 81.716 52.9694 81.5432 53.174C81.3705 53.3831 81.4023 53.6876 81.6069 53.8604C82.6433 54.7195 84.0297 55.1786 85.4343 55.1786C86.0798 55.1786 86.7298 55.0832 87.3526 54.8832C89.2027 54.2922 90.7891 52.874 91.7028 51.0012C91.7119 50.983 91.7164 50.9648 91.7255 50.9466C95.6302 53.4785 98.0167 57.9015 98.1122 62.7926C98.2076 67.7246 95.9575 72.2703 92.1028 74.9568L92.1073 74.9386Z" fill="#7C8C9C"/>
<path d="M70.3036 59.2273C70.049 59.1409 69.7717 59.2818 69.6899 59.5364C68.9717 61.7092 66.8807 63.3775 64.6033 63.5911C62.3259 63.8048 59.9622 62.5547 58.8531 60.5501C57.7485 58.5454 57.9439 55.8817 59.3395 54.0634C59.5031 53.8498 59.4622 53.5452 59.2485 53.3816C59.0349 53.2179 58.7303 53.2588 58.5667 53.4725C56.9439 55.5862 56.7121 58.6909 58.003 61.0228C59.194 63.182 61.6441 64.5866 64.1033 64.5866C64.2988 64.5866 64.4988 64.5775 64.6942 64.5593C67.3444 64.3093 69.7808 62.3729 70.6127 59.841C70.6991 59.5864 70.5581 59.3091 70.3036 59.2273Z" fill="#7C8C9C"/>
</g>
<defs>
<clipPath id="clip0_14018_51176">
<rect width="101" height="99.6954" fill="white" transform="translate(0.5)"/>
</clipPath>
</defs>
</svg>
